PathFileType	4	(X/Y/Z)	S1_rest_med_left.trc
DataRate	CameraRate	NumFrames	NumMarkers	Units	OrigDataRate	OrigDataStartFrame	OrigNumFrames
250.00	250.00	15	18	mm	250.00	5654	22613
Frame#	Time	c7	r_should	l_should	clavicle	r_upa	r_elb_l	r_elb_m	r_low	r_wri_l	r_wri_m	r_met	l_upa	l_elb_l	l_elb_m	l_low	l_wri_l	l_wri_m	l_met
	X1	Y1	Z1	X2	Y2	Z2	X3	Y3	Z3	X4	Y4	Z4	X5	Y5	Z5	X6	Y6	Z6	X7	Y7	Z7	X8	Y8	Z8	X9	Y9	Z9	X10	Y10	Z10	X11	Y11	Z11	X12	Y12	Z12	X13	Y13	Z13	X14	Y14	Z14	X15	Y15	Z15	X16	Y16	Z16	X17	Y17	Z17	X18	Y18	Z18
5654	22.61200	435.71255	1417.59631	9.51415	513.25311	1351.56653	189.19273	471.31216	1362.59485	-179.88338	575.54736	1298.77380	-8.30451	499.26270	1156.70251	263.33624	516.81281	1059.14697	275.94797	439.25159	1031.97791	217.95135	507.78342	926.36346	289.65442	600.50775	866.47858	237.80197	542.66602	832.76337	263.86545	654.38599	789.42017	237.67949	480.10910	1138.72412	-216.98529	488.95706	1056.67236	-236.92984	473.76944	1022.96423	-134.72079	462.55505	906.84784	-217.99910	524.33936	825.17413	-262.55862	489.04578	793.65741	-202.90269	503.22925	753.17218	-287.84927
5655	22.61600	435.63083	1417.58276	9.55677	513.15686	1351.57715	189.25092	471.27820	1362.58154	-179.84132	575.36255	1298.83997	-8.42823	499.20386	1156.70618	263.40106	516.77673	1059.16479	276.00790	439.22119	1031.96521	218.02222	507.79404	926.37134	289.72440	600.53241	866.52423	237.87758	542.69800	832.79181	263.93686	654.44116	789.48663	237.76112	480.06921	1138.72192	-216.96213	488.92029	1056.66797	-236.92751	473.71262	1022.95911	-134.71608	462.52676	906.83685	-218.00986	524.29395	825.17078	-262.57510	489.00244	793.64642	-202.91943	503.17764	753.18109	-287.87744
5656	22.62000	435.55179	1417.56970	9.59434	513.06079	1351.58691	189.29897	471.24432	1362.56262	-179.79134	575.34503	1298.82458	-8.29923	499.14801	1156.71521	263.46332	516.74304	1059.18481	276.06528	439.19553	1031.96130	218.08423	507.79849	926.38403	289.78510	600.55640	866.57062	237.94975	542.72882	832.82043	264.01266	654.49152	789.54877	237.84088	480.04016	1138.72156	-216.93665	488.87833	1056.66260	-236.92340	473.64655	1022.94800	-134.72647	462.49335	906.82397	-218.01776	524.24731	825.16974	-262.59219	488.96436	793.64062	-202.92836	503.13919	753.18140	-287.88876
5657	22.62400	435.47891	1417.56042	9.62584	512.96283	1351.59753	189.35219	471.21774	1362.54431	-179.75121	575.44525	1298.76392	-8.01292	499.09210	1156.71973	263.52423	516.70709	1059.21313	276.12567	439.16895	1031.95789	218.14957	507.79248	926.40570	289.84772	600.57318	866.62067	238.03041	542.75800	832.85822	264.09357	654.53851	789.61676	237.92888	480.01288	1138.72205	-216.91353	488.84363	1056.66162	-236.91484	473.59689	1022.94208	-134.72267	462.45923	906.81311	-218.02472	524.20148	825.17139	-262.61047	488.92834	793.63245	-202.93285	503.10092	753.17218	-287.89682
5658	22.62800	435.40805	1417.55811	9.65171	512.86517	1351.61279	189.40329	471.19760	1362.53308	-179.70120	575.43933	1298.75806	-7.88029	499.03772	1156.73303	263.58179	516.67969	1059.23474	276.18369	439.13657	1031.95398	218.21779	507.78748	926.42548	289.91364	600.58917	866.67627	238.11575	542.78308	832.89465	264.17249	654.58716	789.68683	238.01149	479.98950	1138.71887	-216.89319	488.81058	1056.66199	-236.91197	473.51282	1022.93970	-134.71623	462.42459	906.80273	-218.03018	524.16193	825.17468	-262.62854	488.89316	793.62488	-202.93739	503.05582	753.17084	-287.91681
5659	22.63200	435.33765	1417.54834	9.68212	512.76447	1351.62598	189.45515	471.17755	1362.51721	-179.65671	575.40900	1298.76562	-7.78749	498.98447	1156.74768	263.65073	516.65063	1059.25342	276.24323	439.09341	1031.95312	218.28859	507.78531	926.44574	289.98846	600.60931	866.72937	238.20329	542.81183	832.92822	264.25073	654.63354	789.74866	238.10388	479.96729	1138.71716	-216.86646	488.77939	1056.65698	-236.90213	473.47610	1022.92957	-134.71004	462.38715	906.79260	-218.03200	524.11737	825.17627	-262.64328	488.85944	793.61865	-202.94502	503.01379	753.16968	-287.93359
5660	22.63600	435.26840	1417.52930	9.72136	512.66101	1351.63501	189.51805	471.16821	1362.50293	-179.61040	575.35907	1298.77429	-7.70012	498.91800	1156.76550	263.72379	516.60339	1059.27112	276.31131	439.05838	1031.94165	218.35228	507.77881	926.45563	290.05725	600.62500	866.77411	238.29901	542.83649	832.95636	264.33563	654.67285	789.81012	238.20218	479.94269	1138.70728	-216.82999	488.74521	1056.65125	-236.88539	473.41962	1022.91919	-134.70433	462.34918	906.78278	-218.03575	524.07715	825.17395	-262.65509	488.82825	793.60754	-202.94499	502.96640	753.16290	-287.95062
5661	22.64000	435.19537	1417.51270	9.77143	512.55286	1351.63733	189.57523	471.16699	1362.48889	-179.55023	575.30078	1298.76453	-7.61485	498.84555	1156.78955	263.81000	516.55457	1059.28577	276.39148	439.01630	1031.93567	218.42365	507.76254	926.46167	290.13742	600.63220	866.80933	238.40085	542.85132	832.97638	264.42462	654.71295	789.86493	238.31992	479.92166	1138.69800	-216.79846	488.71326	1056.64807	-236.87054	473.35303	1022.92273	-134.69876	462.31506	906.76996	-218.03801	524.03149	825.16693	-262.66092	488.79422	793.60132	-202.94807	502.92010	753.16156	-287.95731
5662	22.64400	435.12204	1417.49683	9.82321	512.43176	1351.63574	189.63330	471.16690	1362.46680	-179.50142	575.24597	1298.75256	-7.52527	498.77655	1156.79260	263.88712	516.50507	1059.30798	276.47122	438.97052	1031.93359	218.49394	507.74716	926.47302	290.22598	600.64050	866.84332	238.51065	542.86719	832.99384	264.51981	654.74530	789.92352	238.44923	479.89896	1138.68933	-216.76717	488.68787	1056.64673	-236.85622	473.32434	1022.90082	-134.68619	462.27884	906.75739	-218.03706	523.98859	825.16046	-262.66809	488.76031	793.58612	-202.94420	502.87103	753.15698	-287.96948
5663	22.64800	435.04697	1417.47839	9.86741	512.31116	1351.62891	189.70810	471.17004	1362.45032	-179.45581	575.19110	1298.75134	-7.42735	498.71179	1156.78149	263.95700	516.44708	1059.32324	276.56842	438.92685	1031.92114	218.55936	507.72845	926.47931	290.30820	600.64722	866.87518	238.62202	542.88184	833.00757	264.61374	654.77545	789.97858	238.56958	479.87454	1138.67761	-216.73865	488.66113	1056.64319	-236.83392	473.28705	1022.87256	-134.68016	462.24438	906.74811	-218.04326	523.95355	825.15277	-262.67996	488.71826	793.57397	-202.94763	502.82217	753.16370	-287.98730
5664	22.65200	434.97369	1417.46448	9.91751	512.18701	1351.62390	189.77493	471.17920	1362.43677	-179.40425	575.14093	1298.75439	-7.32460	498.63470	1156.78088	264.02728	516.39648	1059.32849	276.65958	438.88831	1031.90234	218.62096	507.70505	926.48633	290.39633	600.65674	866.89935	238.73654	542.89691	833.01868	264.70856	654.80682	790.02063	238.69023	479.85403	1138.67151	-216.71152	488.63885	1056.63525	-236.81482	473.24435	1022.85693	-134.67091	462.21225	906.73926	-218.05739	523.91516	825.14557	-262.68924	488.68250	793.56537	-202.95033	502.77411	753.14594	-287.98923
5665	22.65600	434.89981	1417.45190	9.96659	512.05817	1351.61938	189.84479	471.19205	1362.41919	-179.34647	575.08020	1298.75781	-7.23267	498.54611	1156.77502	264.09091	516.33667	1059.33582	276.74976	438.84805	1031.88123	218.70163	507.67737	926.48962	290.48434	600.66241	866.92761	238.85361	542.90924	833.03473	264.80930	654.83130	790.06647	238.81438	479.84189	1138.66309	-216.67693	488.62738	1056.62854	-236.79971	473.21515	1022.83789	-134.66562	462.18048	906.73297	-218.07271	523.87671	825.14575	-262.70203	488.64923	793.56183	-202.95349	502.72757	753.13892	-287.99939
5666	22.66000	434.82407	1417.44446	10.01754	511.92267	1351.61719	189.91515	471.21579	1362.40173	-179.28860	575.01862	1298.75342	-7.13791	498.46082	1156.77771	264.17087	516.26489	1059.34534	276.85965	438.79510	1031.86267	218.78230	507.65234	926.49280	290.58392	600.66125	866.95624	238.96626	542.91827	833.05280	264.91705	654.85028	790.11871	238.94727	479.82843	1138.66040	-216.64554	488.62082	1056.62988	-236.78639	473.16711	1022.82666	-134.65897	462.14862	906.73175	-218.09297	523.83789	825.14288	-262.71658	488.61124	793.56433	-202.95586	502.68143	753.14404	-288.01498
5667	22.66400	434.74655	1417.43481	10.07036	511.78665	1351.61719	189.99022	471.24292	1362.38782	-179.23062	574.96820	1298.74329	-7.01448	498.37344	1156.79102	264.25626	516.19464	1059.34497	276.96860	438.73856	1031.84705	218.86426	507.62878	926.49133	290.67859	600.65741	866.97845	239.08635	542.92621	833.06494	265.02664	654.87482	790.16003	239.08954	479.81744	1138.65735	-216.61531	488.61212	1056.63196	-236.76682	473.13458	1022.81830	-134.64578	462.11795	906.73248	-218.10609	523.80078	825.14343	-262.73141	488.57803	793.55933	-202.95088	502.62939	753.14392	-288.02856
5668	22.66800	434.66824	1417.42688	10.11930	511.64896	1351.61487	190.07173	471.27820	1362.37524	-179.16891	574.92468	1298.74451	-6.88382	498.26630	1156.77478	264.33820	516.12213	1059.34131	277.08276	438.68167	1031.83398	218.95039	507.59949	926.49042	290.77625	600.65363	867.00079	239.21085	542.93073	833.07629	265.13794	654.89099	790.20233	239.22795	479.81595	1138.65063	-216.58334	488.60498	1056.64160	-236.75345	473.07928	1022.79926	-134.63301	462.08679	906.72864	-218.12093	523.76221	825.14758	-262.74582	488.54233	793.55835	-202.94653	502.58099	753.13995	-288.03699
